<mxfile host="65bd71144e">
    <diagram id="acAXRt51EIfAjo6ISvo6" name="Overall">
        <mxGraphModel dx="2133" dy="2313" grid="1" gridSize="10" guides="1" tooltips="1" connect="1" arrows="1" fold="1" page="1" pageScale="1" pageWidth="827" pageHeight="1169" math="0" shadow="0">
            <root>
                <mxCell id="0"/>
                <mxCell id="1" parent="0"/>
                <mxCell id="VIc3epZ1D3T7dfsYwMOY-31" value="" style="group" parent="1" vertex="1" connectable="0">
                    <mxGeometry x="160" y="-210" width="610" height="80" as="geometry"/>
                </mxCell>
                <mxCell id="28" value="" style="edgeStyle=none;html=1;" parent="VIc3epZ1D3T7dfsYwMOY-31" source="25" target="26" edge="1">
                    <mxGeometry relative="1" as="geometry"/>
                </mxCell>
                <mxCell id="25" value="Power ON" style="rounded=1;whiteSpace=wrap;html=1;fillColor=#fff2cc;strokeColor=#d6b656;" parent="VIc3epZ1D3T7dfsYwMOY-31" vertex="1">
                    <mxGeometry y="15" width="100" height="50" as="geometry"/>
                </mxCell>
                <mxCell id="29" value="" style="edgeStyle=none;html=1;" parent="VIc3epZ1D3T7dfsYwMOY-31" source="26" target="27" edge="1">
                    <mxGeometry relative="1" as="geometry"/>
                </mxCell>
                <mxCell id="26" value="Initialization" style="rounded=1;whiteSpace=wrap;html=1;fillColor=#fff2cc;strokeColor=#d6b656;" parent="VIc3epZ1D3T7dfsYwMOY-31" vertex="1">
                    <mxGeometry x="190" y="15" width="100" height="50" as="geometry"/>
                </mxCell>
                <mxCell id="31" value="" style="edgeStyle=none;html=1;" parent="VIc3epZ1D3T7dfsYwMOY-31" source="27" target="30" edge="1">
                    <mxGeometry relative="1" as="geometry"/>
                </mxCell>
                <mxCell id="27" value="Loop" style="rounded=1;whiteSpace=wrap;html=1;fillColor=#fff2cc;strokeColor=#d6b656;" parent="VIc3epZ1D3T7dfsYwMOY-31" vertex="1">
                    <mxGeometry x="350" y="15" width="100" height="50" as="geometry"/>
                </mxCell>
                <mxCell id="30" value="End" style="ellipse;whiteSpace=wrap;html=1;aspect=fixed;fillColor=#fff2cc;strokeColor=#d6b656;" parent="VIc3epZ1D3T7dfsYwMOY-31" vertex="1">
                    <mxGeometry x="530" width="80" height="80" as="geometry"/>
                </mxCell>
                <mxCell id="mAoWiL0733zifzdC3wp4-31" value="" style="group" vertex="1" connectable="0" parent="1">
                    <mxGeometry x="160" y="-60" width="1680" height="260" as="geometry"/>
                </mxCell>
                <mxCell id="mAoWiL0733zifzdC3wp4-32" value="" style="edgeStyle=none;html=1;" edge="1" parent="mAoWiL0733zifzdC3wp4-31" source="mAoWiL0733zifzdC3wp4-33" target="mAoWiL0733zifzdC3wp4-47">
                    <mxGeometry relative="1" as="geometry"/>
                </mxCell>
                <mxCell id="mAoWiL0733zifzdC3wp4-33" value="&lt;span style=&quot;color: rgb(0, 0, 0);&quot;&gt;Initialization&lt;/span&gt;" style="rounded=1;whiteSpace=wrap;html=1;fillColor=#fff2cc;strokeColor=#d6b656;" vertex="1" parent="mAoWiL0733zifzdC3wp4-31">
                    <mxGeometry y="120" width="100" height="50" as="geometry"/>
                </mxCell>
                <mxCell id="mAoWiL0733zifzdC3wp4-34" value="" style="edgeStyle=none;html=1;" edge="1" parent="mAoWiL0733zifzdC3wp4-31" source="mAoWiL0733zifzdC3wp4-38" target="mAoWiL0733zifzdC3wp4-45">
                    <mxGeometry relative="1" as="geometry"/>
                </mxCell>
                <mxCell id="mAoWiL0733zifzdC3wp4-35" value="N" style="edgeLabel;html=1;align=center;verticalAlign=middle;resizable=0;points=[];" vertex="1" connectable="0" parent="mAoWiL0733zifzdC3wp4-34">
                    <mxGeometry x="-0.5562" y="-1" relative="1" as="geometry">
                        <mxPoint x="-1" y="-16" as="offset"/>
                    </mxGeometry>
                </mxCell>
                <mxCell id="mAoWiL0733zifzdC3wp4-36" style="edgeStyle=none;html=1;entryX=0;entryY=0.5;entryDx=0;entryDy=0;" edge="1" parent="mAoWiL0733zifzdC3wp4-31" source="mAoWiL0733zifzdC3wp4-38" target="mAoWiL0733zifzdC3wp4-54">
                    <mxGeometry relative="1" as="geometry">
                        <mxPoint x="1550" y="280" as="targetPoint"/>
                        <Array as="points">
                            <mxPoint x="650" y="260"/>
                            <mxPoint x="1550" y="260"/>
                            <mxPoint x="1550" y="145"/>
                        </Array>
                    </mxGeometry>
                </mxCell>
                <mxCell id="mAoWiL0733zifzdC3wp4-37" value="Y" style="edgeLabel;html=1;align=center;verticalAlign=middle;resizable=0;points=[];" vertex="1" connectable="0" parent="mAoWiL0733zifzdC3wp4-36">
                    <mxGeometry x="-0.4286" y="2" relative="1" as="geometry">
                        <mxPoint x="-236" y="-78" as="offset"/>
                    </mxGeometry>
                </mxCell>
                <mxCell id="mAoWiL0733zifzdC3wp4-38" value="Timeout?" style="rhombus;whiteSpace=wrap;html=1;" vertex="1" parent="mAoWiL0733zifzdC3wp4-31">
                    <mxGeometry x="580" y="100" width="140" height="90" as="geometry"/>
                </mxCell>
                <mxCell id="mAoWiL0733zifzdC3wp4-39" value="" style="edgeStyle=none;html=1;" edge="1" parent="mAoWiL0733zifzdC3wp4-31" source="mAoWiL0733zifzdC3wp4-40" target="mAoWiL0733zifzdC3wp4-59">
                    <mxGeometry relative="1" as="geometry"/>
                </mxCell>
                <mxCell id="mAoWiL0733zifzdC3wp4-40" value="Get calibration data" style="rounded=1;whiteSpace=wrap;html=1;" vertex="1" parent="mAoWiL0733zifzdC3wp4-31">
                    <mxGeometry x="990" y="115" width="120" height="60" as="geometry"/>
                </mxCell>
                <mxCell id="mAoWiL0733zifzdC3wp4-41" value="" style="edgeStyle=none;html=1;" edge="1" parent="mAoWiL0733zifzdC3wp4-31" source="mAoWiL0733zifzdC3wp4-45" target="mAoWiL0733zifzdC3wp4-40">
                    <mxGeometry relative="1" as="geometry"/>
                </mxCell>
                <mxCell id="mAoWiL0733zifzdC3wp4-42" value="Y" style="edgeLabel;html=1;align=center;verticalAlign=middle;resizable=0;points=[];" vertex="1" connectable="0" parent="mAoWiL0733zifzdC3wp4-41">
                    <mxGeometry x="-0.1988" relative="1" as="geometry">
                        <mxPoint x="-22" y="-15" as="offset"/>
                    </mxGeometry>
                </mxCell>
                <mxCell id="mAoWiL0733zifzdC3wp4-43" value="" style="edgeStyle=none;html=1;entryX=1;entryY=0.5;entryDx=0;entryDy=0;" edge="1" parent="mAoWiL0733zifzdC3wp4-31" source="mAoWiL0733zifzdC3wp4-45" target="mAoWiL0733zifzdC3wp4-53">
                    <mxGeometry relative="1" as="geometry">
                        <Array as="points">
                            <mxPoint x="840" y="25"/>
                        </Array>
                    </mxGeometry>
                </mxCell>
                <mxCell id="mAoWiL0733zifzdC3wp4-44" value="N" style="edgeLabel;html=1;align=center;verticalAlign=middle;resizable=0;points=[];" vertex="1" connectable="0" parent="mAoWiL0733zifzdC3wp4-43">
                    <mxGeometry x="-0.8504" relative="1" as="geometry">
                        <mxPoint x="10" as="offset"/>
                    </mxGeometry>
                </mxCell>
                <mxCell id="mAoWiL0733zifzdC3wp4-45" value="WiFi Conneccted?" style="rhombus;whiteSpace=wrap;html=1;" vertex="1" parent="mAoWiL0733zifzdC3wp4-31">
                    <mxGeometry x="770" y="100" width="140" height="90" as="geometry"/>
                </mxCell>
                <mxCell id="mAoWiL0733zifzdC3wp4-46" value="" style="edgeStyle=none;html=1;" edge="1" parent="mAoWiL0733zifzdC3wp4-31" source="mAoWiL0733zifzdC3wp4-47" target="mAoWiL0733zifzdC3wp4-49">
                    <mxGeometry relative="1" as="geometry"/>
                </mxCell>
                <mxCell id="mAoWiL0733zifzdC3wp4-47" value="&lt;span style=&quot;color: rgb(0, 0, 0);&quot;&gt;Open serial&lt;/span&gt;" style="rounded=1;whiteSpace=wrap;html=1;" vertex="1" parent="mAoWiL0733zifzdC3wp4-31">
                    <mxGeometry x="140" y="120" width="100" height="50" as="geometry"/>
                </mxCell>
                <mxCell id="mAoWiL0733zifzdC3wp4-48" value="" style="edgeStyle=none;html=1;" edge="1" parent="mAoWiL0733zifzdC3wp4-31" source="mAoWiL0733zifzdC3wp4-49" target="mAoWiL0733zifzdC3wp4-51">
                    <mxGeometry relative="1" as="geometry"/>
                </mxCell>
                <mxCell id="mAoWiL0733zifzdC3wp4-49" value="&lt;span style=&quot;color: rgb(0, 0, 0);&quot;&gt;Open sensor&lt;/span&gt;" style="rounded=1;whiteSpace=wrap;html=1;" vertex="1" parent="mAoWiL0733zifzdC3wp4-31">
                    <mxGeometry x="280" y="120" width="100" height="50" as="geometry"/>
                </mxCell>
                <mxCell id="mAoWiL0733zifzdC3wp4-50" value="" style="edgeStyle=none;html=1;" edge="1" parent="mAoWiL0733zifzdC3wp4-31" source="mAoWiL0733zifzdC3wp4-51" target="mAoWiL0733zifzdC3wp4-38">
                    <mxGeometry relative="1" as="geometry"/>
                </mxCell>
                <mxCell id="mAoWiL0733zifzdC3wp4-51" value="&lt;span style=&quot;color: rgb(0, 0, 0);&quot;&gt;Connect WiFi&lt;/span&gt;" style="rounded=1;whiteSpace=wrap;html=1;" vertex="1" parent="mAoWiL0733zifzdC3wp4-31">
                    <mxGeometry x="420" y="120" width="100" height="50" as="geometry"/>
                </mxCell>
                <mxCell id="mAoWiL0733zifzdC3wp4-52" style="edgeStyle=none;html=1;entryX=0.5;entryY=0;entryDx=0;entryDy=0;" edge="1" parent="mAoWiL0733zifzdC3wp4-31" source="mAoWiL0733zifzdC3wp4-53" target="mAoWiL0733zifzdC3wp4-38">
                    <mxGeometry relative="1" as="geometry">
                        <Array as="points">
                            <mxPoint x="650" y="25"/>
                        </Array>
                    </mxGeometry>
                </mxCell>
                <mxCell id="mAoWiL0733zifzdC3wp4-53" value="&lt;span style=&quot;color: rgb(0, 0, 0);&quot;&gt;Timeout++&lt;/span&gt;" style="rounded=1;whiteSpace=wrap;html=1;" vertex="1" parent="mAoWiL0733zifzdC3wp4-31">
                    <mxGeometry x="700" width="100" height="50" as="geometry"/>
                </mxCell>
                <mxCell id="mAoWiL0733zifzdC3wp4-54" value="End" style="ellipse;whiteSpace=wrap;html=1;aspect=fixed;fillColor=#fff2cc;strokeColor=#d6b656;" vertex="1" parent="mAoWiL0733zifzdC3wp4-31">
                    <mxGeometry x="1600" y="105" width="80" height="80" as="geometry"/>
                </mxCell>
                <mxCell id="mAoWiL0733zifzdC3wp4-55" style="edgeStyle=none;html=1;entryX=0;entryY=0.5;entryDx=0;entryDy=0;" edge="1" parent="mAoWiL0733zifzdC3wp4-31" source="mAoWiL0733zifzdC3wp4-59" target="mAoWiL0733zifzdC3wp4-54">
                    <mxGeometry relative="1" as="geometry">
                        <mxPoint x="1570" y="145" as="targetPoint"/>
                        <Array as="points">
                            <mxPoint x="1265" y="260"/>
                            <mxPoint x="1550" y="260"/>
                            <mxPoint x="1550" y="145"/>
                        </Array>
                    </mxGeometry>
                </mxCell>
                <mxCell id="mAoWiL0733zifzdC3wp4-56" value="N" style="edgeLabel;html=1;align=center;verticalAlign=middle;resizable=0;points=[];" vertex="1" connectable="0" parent="mAoWiL0733zifzdC3wp4-55">
                    <mxGeometry x="-0.9764" y="2" relative="1" as="geometry">
                        <mxPoint x="13" y="8" as="offset"/>
                    </mxGeometry>
                </mxCell>
                <mxCell id="mAoWiL0733zifzdC3wp4-57" value="" style="edgeStyle=none;html=1;" edge="1" parent="mAoWiL0733zifzdC3wp4-31" source="mAoWiL0733zifzdC3wp4-59" target="mAoWiL0733zifzdC3wp4-61">
                    <mxGeometry relative="1" as="geometry"/>
                </mxCell>
                <mxCell id="mAoWiL0733zifzdC3wp4-58" value="Y" style="edgeLabel;html=1;align=center;verticalAlign=middle;resizable=0;points=[];" vertex="1" connectable="0" parent="mAoWiL0733zifzdC3wp4-57">
                    <mxGeometry x="-0.099" y="1" relative="1" as="geometry">
                        <mxPoint x="-12" y="-14" as="offset"/>
                    </mxGeometry>
                </mxCell>
                <mxCell id="mAoWiL0733zifzdC3wp4-59" value="Calibration different&amp;nbsp;&lt;div&gt;from NVM data?&lt;/div&gt;" style="rhombus;whiteSpace=wrap;html=1;" vertex="1" parent="mAoWiL0733zifzdC3wp4-31">
                    <mxGeometry x="1170" y="85" width="190" height="120" as="geometry"/>
                </mxCell>
                <mxCell id="mAoWiL0733zifzdC3wp4-60" value="" style="edgeStyle=none;html=1;" edge="1" parent="mAoWiL0733zifzdC3wp4-31" source="mAoWiL0733zifzdC3wp4-61" target="mAoWiL0733zifzdC3wp4-54">
                    <mxGeometry relative="1" as="geometry"/>
                </mxCell>
                <mxCell id="mAoWiL0733zifzdC3wp4-61" value="Save to NVM" style="rounded=1;whiteSpace=wrap;html=1;" vertex="1" parent="mAoWiL0733zifzdC3wp4-31">
                    <mxGeometry x="1410" y="115" width="120" height="60" as="geometry"/>
                </mxCell>
                <mxCell id="mKhPGTVHIkFI6zic5-oX-31" value="" style="group" vertex="1" connectable="0" parent="1">
                    <mxGeometry x="160" y="260" width="960" height="190" as="geometry"/>
                </mxCell>
                <mxCell id="mKhPGTVHIkFI6zic5-oX-32" value="" style="edgeStyle=none;html=1;" edge="1" parent="mKhPGTVHIkFI6zic5-oX-31" source="mKhPGTVHIkFI6zic5-oX-33" target="mKhPGTVHIkFI6zic5-oX-35">
                    <mxGeometry relative="1" as="geometry"/>
                </mxCell>
                <mxCell id="mKhPGTVHIkFI6zic5-oX-33" value="Loop" style="rounded=1;whiteSpace=wrap;html=1;fillColor=#fff2cc;strokeColor=#d6b656;" vertex="1" parent="mKhPGTVHIkFI6zic5-oX-31">
                    <mxGeometry y="120" width="100" height="50" as="geometry"/>
                </mxCell>
                <mxCell id="mKhPGTVHIkFI6zic5-oX-34" value="" style="edgeStyle=none;html=1;" edge="1" parent="mKhPGTVHIkFI6zic5-oX-31" source="mKhPGTVHIkFI6zic5-oX-35" target="mKhPGTVHIkFI6zic5-oX-38">
                    <mxGeometry relative="1" as="geometry"/>
                </mxCell>
                <mxCell id="mKhPGTVHIkFI6zic5-oX-35" value="&lt;span style=&quot;color: rgb(0, 0, 0);&quot;&gt;Read sensor&lt;/span&gt;" style="rounded=1;whiteSpace=wrap;html=1;" vertex="1" parent="mKhPGTVHIkFI6zic5-oX-31">
                    <mxGeometry x="154" y="120" width="100" height="50" as="geometry"/>
                </mxCell>
                <mxCell id="mKhPGTVHIkFI6zic5-oX-36" value="" style="edgeStyle=none;html=1;" edge="1" parent="mKhPGTVHIkFI6zic5-oX-31" source="mKhPGTVHIkFI6zic5-oX-38" target="mKhPGTVHIkFI6zic5-oX-40">
                    <mxGeometry relative="1" as="geometry"/>
                </mxCell>
                <mxCell id="mKhPGTVHIkFI6zic5-oX-37" value="" style="edgeStyle=none;html=1;" edge="1" parent="mKhPGTVHIkFI6zic5-oX-31" source="mKhPGTVHIkFI6zic5-oX-38" target="mKhPGTVHIkFI6zic5-oX-42">
                    <mxGeometry relative="1" as="geometry"/>
                </mxCell>
                <mxCell id="mKhPGTVHIkFI6zic5-oX-38" value="Is NAN?" style="rhombus;whiteSpace=wrap;html=1;" vertex="1" parent="mKhPGTVHIkFI6zic5-oX-31">
                    <mxGeometry x="320" y="100" width="140" height="90" as="geometry"/>
                </mxCell>
                <mxCell id="mKhPGTVHIkFI6zic5-oX-39" style="edgeStyle=none;html=1;exitX=0;exitY=0.5;exitDx=0;exitDy=0;entryX=0.5;entryY=0;entryDx=0;entryDy=0;" edge="1" parent="mKhPGTVHIkFI6zic5-oX-31" source="mKhPGTVHIkFI6zic5-oX-40" target="mKhPGTVHIkFI6zic5-oX-33">
                    <mxGeometry relative="1" as="geometry">
                        <Array as="points">
                            <mxPoint x="50" y="45"/>
                        </Array>
                    </mxGeometry>
                </mxCell>
                <mxCell id="mKhPGTVHIkFI6zic5-oX-40" value="&lt;span style=&quot;color: rgb(0, 0, 0);&quot;&gt;Print debug info&lt;/span&gt;" style="rounded=1;whiteSpace=wrap;html=1;" vertex="1" parent="mKhPGTVHIkFI6zic5-oX-31">
                    <mxGeometry x="340" y="20" width="100" height="50" as="geometry"/>
                </mxCell>
                <mxCell id="mKhPGTVHIkFI6zic5-oX-41" value="" style="edgeStyle=none;html=1;" edge="1" parent="mKhPGTVHIkFI6zic5-oX-31" source="mKhPGTVHIkFI6zic5-oX-42" target="mKhPGTVHIkFI6zic5-oX-44">
                    <mxGeometry relative="1" as="geometry"/>
                </mxCell>
                <mxCell id="mKhPGTVHIkFI6zic5-oX-42" value="&lt;span style=&quot;color: rgb(0, 0, 0);&quot;&gt;Apply calibration&lt;/span&gt;" style="rounded=1;whiteSpace=wrap;html=1;" vertex="1" parent="mKhPGTVHIkFI6zic5-oX-31">
                    <mxGeometry x="520" y="120" width="100" height="50" as="geometry"/>
                </mxCell>
                <mxCell id="mKhPGTVHIkFI6zic5-oX-43" value="" style="edgeStyle=none;html=1;" edge="1" parent="mKhPGTVHIkFI6zic5-oX-31" source="mKhPGTVHIkFI6zic5-oX-44" target="mKhPGTVHIkFI6zic5-oX-46">
                    <mxGeometry relative="1" as="geometry"/>
                </mxCell>
                <mxCell id="mKhPGTVHIkFI6zic5-oX-44" value="&lt;span style=&quot;color: rgb(0, 0, 0);&quot;&gt;Send via HTTP&lt;/span&gt;" style="rounded=1;whiteSpace=wrap;html=1;" vertex="1" parent="mKhPGTVHIkFI6zic5-oX-31">
                    <mxGeometry x="690" y="120" width="100" height="50" as="geometry"/>
                </mxCell>
                <mxCell id="mKhPGTVHIkFI6zic5-oX-45" style="edgeStyle=none;html=1;entryX=0.5;entryY=0;entryDx=0;entryDy=0;" edge="1" parent="mKhPGTVHIkFI6zic5-oX-31" source="mKhPGTVHIkFI6zic5-oX-46" target="mKhPGTVHIkFI6zic5-oX-33">
                    <mxGeometry relative="1" as="geometry">
                        <mxPoint x="780" y="70" as="targetPoint"/>
                        <Array as="points">
                            <mxPoint x="960" y="145"/>
                            <mxPoint x="960"/>
                            <mxPoint x="50"/>
                        </Array>
                    </mxGeometry>
                </mxCell>
                <mxCell id="mKhPGTVHIkFI6zic5-oX-46" value="&lt;span style=&quot;color: rgb(0, 0, 0);&quot;&gt;Delay 2000ms&lt;/span&gt;" style="rounded=1;whiteSpace=wrap;html=1;" vertex="1" parent="mKhPGTVHIkFI6zic5-oX-31">
                    <mxGeometry x="840" y="120" width="100" height="50" as="geometry"/>
                </mxCell>
            </root>
        </mxGraphModel>
    </diagram>
    <diagram id="JLyzMm3VNKujAfQF2N3J" name="Init">
        <mxGraphModel dx="1493" dy="1970" grid="1" gridSize="10" guides="1" tooltips="1" connect="1" arrows="1" fold="1" page="1" pageScale="1" pageWidth="827" pageHeight="1169" math="0" shadow="0">
            <root>
                <mxCell id="0"/>
                <mxCell id="1" parent="0"/>
                <mxCell id="JlUbqx0q-nwkSzGN85d0-1" value="" style="group" parent="1" vertex="1" connectable="0">
                    <mxGeometry x="160" y="-60" width="1680" height="260" as="geometry"/>
                </mxCell>
                <mxCell id="S5xFT5N5BQioJ2fnwFOQ-1" value="" style="edgeStyle=none;html=1;" parent="JlUbqx0q-nwkSzGN85d0-1" source="S5xFT5N5BQioJ2fnwFOQ-2" target="S5xFT5N5BQioJ2fnwFOQ-16" edge="1">
                    <mxGeometry relative="1" as="geometry"/>
                </mxCell>
                <mxCell id="S5xFT5N5BQioJ2fnwFOQ-2" value="&lt;span style=&quot;color: rgb(0, 0, 0);&quot;&gt;Initialization&lt;/span&gt;" style="rounded=1;whiteSpace=wrap;html=1;fillColor=#fff2cc;strokeColor=#d6b656;" parent="JlUbqx0q-nwkSzGN85d0-1" vertex="1">
                    <mxGeometry y="120" width="100" height="50" as="geometry"/>
                </mxCell>
                <mxCell id="S5xFT5N5BQioJ2fnwFOQ-3" value="" style="edgeStyle=none;html=1;" parent="JlUbqx0q-nwkSzGN85d0-1" source="S5xFT5N5BQioJ2fnwFOQ-7" target="S5xFT5N5BQioJ2fnwFOQ-14" edge="1">
                    <mxGeometry relative="1" as="geometry"/>
                </mxCell>
                <mxCell id="S5xFT5N5BQioJ2fnwFOQ-4" value="N" style="edgeLabel;html=1;align=center;verticalAlign=middle;resizable=0;points=[];" parent="S5xFT5N5BQioJ2fnwFOQ-3" vertex="1" connectable="0">
                    <mxGeometry x="-0.5562" y="-1" relative="1" as="geometry">
                        <mxPoint x="-1" y="-16" as="offset"/>
                    </mxGeometry>
                </mxCell>
                <mxCell id="S5xFT5N5BQioJ2fnwFOQ-5" style="edgeStyle=none;html=1;entryX=0;entryY=0.5;entryDx=0;entryDy=0;" parent="JlUbqx0q-nwkSzGN85d0-1" source="S5xFT5N5BQioJ2fnwFOQ-7" target="S5xFT5N5BQioJ2fnwFOQ-23" edge="1">
                    <mxGeometry relative="1" as="geometry">
                        <mxPoint x="1550" y="280" as="targetPoint"/>
                        <Array as="points">
                            <mxPoint x="650" y="260"/>
                            <mxPoint x="1550" y="260"/>
                            <mxPoint x="1550" y="145"/>
                        </Array>
                    </mxGeometry>
                </mxCell>
                <mxCell id="S5xFT5N5BQioJ2fnwFOQ-6" value="Y" style="edgeLabel;html=1;align=center;verticalAlign=middle;resizable=0;points=[];" parent="S5xFT5N5BQioJ2fnwFOQ-5" vertex="1" connectable="0">
                    <mxGeometry x="-0.4286" y="2" relative="1" as="geometry">
                        <mxPoint x="-236" y="-78" as="offset"/>
                    </mxGeometry>
                </mxCell>
                <mxCell id="S5xFT5N5BQioJ2fnwFOQ-7" value="Timeout?" style="rhombus;whiteSpace=wrap;html=1;" parent="JlUbqx0q-nwkSzGN85d0-1" vertex="1">
                    <mxGeometry x="580" y="100" width="140" height="90" as="geometry"/>
                </mxCell>
                <mxCell id="S5xFT5N5BQioJ2fnwFOQ-8" value="" style="edgeStyle=none;html=1;" parent="JlUbqx0q-nwkSzGN85d0-1" source="S5xFT5N5BQioJ2fnwFOQ-9" target="S5xFT5N5BQioJ2fnwFOQ-28" edge="1">
                    <mxGeometry relative="1" as="geometry"/>
                </mxCell>
                <mxCell id="S5xFT5N5BQioJ2fnwFOQ-9" value="Get calibration data" style="rounded=1;whiteSpace=wrap;html=1;" parent="JlUbqx0q-nwkSzGN85d0-1" vertex="1">
                    <mxGeometry x="990" y="115" width="120" height="60" as="geometry"/>
                </mxCell>
                <mxCell id="S5xFT5N5BQioJ2fnwFOQ-10" value="" style="edgeStyle=none;html=1;" parent="JlUbqx0q-nwkSzGN85d0-1" source="S5xFT5N5BQioJ2fnwFOQ-14" target="S5xFT5N5BQioJ2fnwFOQ-9" edge="1">
                    <mxGeometry relative="1" as="geometry"/>
                </mxCell>
                <mxCell id="S5xFT5N5BQioJ2fnwFOQ-11" value="Y" style="edgeLabel;html=1;align=center;verticalAlign=middle;resizable=0;points=[];" parent="S5xFT5N5BQioJ2fnwFOQ-10" vertex="1" connectable="0">
                    <mxGeometry x="-0.1988" relative="1" as="geometry">
                        <mxPoint x="-22" y="-15" as="offset"/>
                    </mxGeometry>
                </mxCell>
                <mxCell id="S5xFT5N5BQioJ2fnwFOQ-12" value="" style="edgeStyle=none;html=1;entryX=1;entryY=0.5;entryDx=0;entryDy=0;" parent="JlUbqx0q-nwkSzGN85d0-1" source="S5xFT5N5BQioJ2fnwFOQ-14" target="S5xFT5N5BQioJ2fnwFOQ-22" edge="1">
                    <mxGeometry relative="1" as="geometry">
                        <Array as="points">
                            <mxPoint x="840" y="25"/>
                        </Array>
                    </mxGeometry>
                </mxCell>
                <mxCell id="S5xFT5N5BQioJ2fnwFOQ-13" value="N" style="edgeLabel;html=1;align=center;verticalAlign=middle;resizable=0;points=[];" parent="S5xFT5N5BQioJ2fnwFOQ-12" vertex="1" connectable="0">
                    <mxGeometry x="-0.8504" relative="1" as="geometry">
                        <mxPoint x="10" as="offset"/>
                    </mxGeometry>
                </mxCell>
                <mxCell id="S5xFT5N5BQioJ2fnwFOQ-14" value="WiFi Conneccted?" style="rhombus;whiteSpace=wrap;html=1;" parent="JlUbqx0q-nwkSzGN85d0-1" vertex="1">
                    <mxGeometry x="770" y="100" width="140" height="90" as="geometry"/>
                </mxCell>
                <mxCell id="S5xFT5N5BQioJ2fnwFOQ-15" value="" style="edgeStyle=none;html=1;" parent="JlUbqx0q-nwkSzGN85d0-1" source="S5xFT5N5BQioJ2fnwFOQ-16" target="S5xFT5N5BQioJ2fnwFOQ-18" edge="1">
                    <mxGeometry relative="1" as="geometry"/>
                </mxCell>
                <mxCell id="S5xFT5N5BQioJ2fnwFOQ-16" value="&lt;span style=&quot;color: rgb(0, 0, 0);&quot;&gt;Open serial&lt;/span&gt;" style="rounded=1;whiteSpace=wrap;html=1;" parent="JlUbqx0q-nwkSzGN85d0-1" vertex="1">
                    <mxGeometry x="140" y="120" width="100" height="50" as="geometry"/>
                </mxCell>
                <mxCell id="S5xFT5N5BQioJ2fnwFOQ-17" value="" style="edgeStyle=none;html=1;" parent="JlUbqx0q-nwkSzGN85d0-1" source="S5xFT5N5BQioJ2fnwFOQ-18" target="S5xFT5N5BQioJ2fnwFOQ-20" edge="1">
                    <mxGeometry relative="1" as="geometry"/>
                </mxCell>
                <mxCell id="S5xFT5N5BQioJ2fnwFOQ-18" value="&lt;span style=&quot;color: rgb(0, 0, 0);&quot;&gt;Open sensor&lt;/span&gt;" style="rounded=1;whiteSpace=wrap;html=1;" parent="JlUbqx0q-nwkSzGN85d0-1" vertex="1">
                    <mxGeometry x="280" y="120" width="100" height="50" as="geometry"/>
                </mxCell>
                <mxCell id="S5xFT5N5BQioJ2fnwFOQ-19" value="" style="edgeStyle=none;html=1;" parent="JlUbqx0q-nwkSzGN85d0-1" source="S5xFT5N5BQioJ2fnwFOQ-20" target="S5xFT5N5BQioJ2fnwFOQ-7" edge="1">
                    <mxGeometry relative="1" as="geometry"/>
                </mxCell>
                <mxCell id="S5xFT5N5BQioJ2fnwFOQ-20" value="&lt;span style=&quot;color: rgb(0, 0, 0);&quot;&gt;Connect WiFi&lt;/span&gt;" style="rounded=1;whiteSpace=wrap;html=1;" parent="JlUbqx0q-nwkSzGN85d0-1" vertex="1">
                    <mxGeometry x="420" y="120" width="100" height="50" as="geometry"/>
                </mxCell>
                <mxCell id="S5xFT5N5BQioJ2fnwFOQ-21" style="edgeStyle=none;html=1;entryX=0.5;entryY=0;entryDx=0;entryDy=0;" parent="JlUbqx0q-nwkSzGN85d0-1" source="S5xFT5N5BQioJ2fnwFOQ-22" target="S5xFT5N5BQioJ2fnwFOQ-7" edge="1">
                    <mxGeometry relative="1" as="geometry">
                        <Array as="points">
                            <mxPoint x="650" y="25"/>
                        </Array>
                    </mxGeometry>
                </mxCell>
                <mxCell id="S5xFT5N5BQioJ2fnwFOQ-22" value="&lt;span style=&quot;color: rgb(0, 0, 0);&quot;&gt;Timeout++&lt;/span&gt;" style="rounded=1;whiteSpace=wrap;html=1;" parent="JlUbqx0q-nwkSzGN85d0-1" vertex="1">
                    <mxGeometry x="700" width="100" height="50" as="geometry"/>
                </mxCell>
                <mxCell id="S5xFT5N5BQioJ2fnwFOQ-23" value="End" style="ellipse;whiteSpace=wrap;html=1;aspect=fixed;fillColor=#fff2cc;strokeColor=#d6b656;" parent="JlUbqx0q-nwkSzGN85d0-1" vertex="1">
                    <mxGeometry x="1600" y="105" width="80" height="80" as="geometry"/>
                </mxCell>
                <mxCell id="S5xFT5N5BQioJ2fnwFOQ-24" style="edgeStyle=none;html=1;entryX=0;entryY=0.5;entryDx=0;entryDy=0;" parent="JlUbqx0q-nwkSzGN85d0-1" source="S5xFT5N5BQioJ2fnwFOQ-28" target="S5xFT5N5BQioJ2fnwFOQ-23" edge="1">
                    <mxGeometry relative="1" as="geometry">
                        <mxPoint x="1570" y="145" as="targetPoint"/>
                        <Array as="points">
                            <mxPoint x="1265" y="260"/>
                            <mxPoint x="1550" y="260"/>
                            <mxPoint x="1550" y="145"/>
                        </Array>
                    </mxGeometry>
                </mxCell>
                <mxCell id="S5xFT5N5BQioJ2fnwFOQ-25" value="N" style="edgeLabel;html=1;align=center;verticalAlign=middle;resizable=0;points=[];" parent="S5xFT5N5BQioJ2fnwFOQ-24" vertex="1" connectable="0">
                    <mxGeometry x="-0.9764" y="2" relative="1" as="geometry">
                        <mxPoint x="13" y="8" as="offset"/>
                    </mxGeometry>
                </mxCell>
                <mxCell id="S5xFT5N5BQioJ2fnwFOQ-26" value="" style="edgeStyle=none;html=1;" parent="JlUbqx0q-nwkSzGN85d0-1" source="S5xFT5N5BQioJ2fnwFOQ-28" target="S5xFT5N5BQioJ2fnwFOQ-30" edge="1">
                    <mxGeometry relative="1" as="geometry"/>
                </mxCell>
                <mxCell id="S5xFT5N5BQioJ2fnwFOQ-27" value="Y" style="edgeLabel;html=1;align=center;verticalAlign=middle;resizable=0;points=[];" parent="S5xFT5N5BQioJ2fnwFOQ-26" vertex="1" connectable="0">
                    <mxGeometry x="-0.099" y="1" relative="1" as="geometry">
                        <mxPoint x="-12" y="-14" as="offset"/>
                    </mxGeometry>
                </mxCell>
                <mxCell id="S5xFT5N5BQioJ2fnwFOQ-28" value="Calibration different&amp;nbsp;&lt;div&gt;from NVM data?&lt;/div&gt;" style="rhombus;whiteSpace=wrap;html=1;" parent="JlUbqx0q-nwkSzGN85d0-1" vertex="1">
                    <mxGeometry x="1170" y="85" width="190" height="120" as="geometry"/>
                </mxCell>
                <mxCell id="S5xFT5N5BQioJ2fnwFOQ-29" value="" style="edgeStyle=none;html=1;" parent="JlUbqx0q-nwkSzGN85d0-1" source="S5xFT5N5BQioJ2fnwFOQ-30" target="S5xFT5N5BQioJ2fnwFOQ-23" edge="1">
                    <mxGeometry relative="1" as="geometry"/>
                </mxCell>
                <mxCell id="S5xFT5N5BQioJ2fnwFOQ-30" value="Save to NVM" style="rounded=1;whiteSpace=wrap;html=1;" parent="JlUbqx0q-nwkSzGN85d0-1" vertex="1">
                    <mxGeometry x="1410" y="115" width="120" height="60" as="geometry"/>
                </mxCell>
            </root>
        </mxGraphModel>
    </diagram>
    <diagram id="N7atavksC66IIjzOKdw3" name="Loop">
        <mxGraphModel dx="1493" dy="801" grid="1" gridSize="10" guides="1" tooltips="1" connect="1" arrows="1" fold="1" page="1" pageScale="1" pageWidth="827" pageHeight="1169" math="0" shadow="0">
            <root>
                <mxCell id="0"/>
                <mxCell id="1" parent="0"/>
                <mxCell id="9didt3gDB0nZDHvkzKLc-1" value="" style="group" parent="1" vertex="1" connectable="0">
                    <mxGeometry x="160" y="260" width="960" height="190" as="geometry"/>
                </mxCell>
                <mxCell id="_y57VzKYN6rT8DrywscY-1" value="" style="edgeStyle=none;html=1;" parent="9didt3gDB0nZDHvkzKLc-1" source="_y57VzKYN6rT8DrywscY-2" target="_y57VzKYN6rT8DrywscY-4" edge="1">
                    <mxGeometry relative="1" as="geometry"/>
                </mxCell>
                <mxCell id="_y57VzKYN6rT8DrywscY-2" value="Loop" style="rounded=1;whiteSpace=wrap;html=1;fillColor=#fff2cc;strokeColor=#d6b656;" parent="9didt3gDB0nZDHvkzKLc-1" vertex="1">
                    <mxGeometry y="120" width="100" height="50" as="geometry"/>
                </mxCell>
                <mxCell id="_y57VzKYN6rT8DrywscY-3" value="" style="edgeStyle=none;html=1;" parent="9didt3gDB0nZDHvkzKLc-1" source="_y57VzKYN6rT8DrywscY-4" target="_y57VzKYN6rT8DrywscY-7" edge="1">
                    <mxGeometry relative="1" as="geometry"/>
                </mxCell>
                <mxCell id="_y57VzKYN6rT8DrywscY-4" value="&lt;span style=&quot;color: rgb(0, 0, 0);&quot;&gt;Read sensor&lt;/span&gt;" style="rounded=1;whiteSpace=wrap;html=1;" parent="9didt3gDB0nZDHvkzKLc-1" vertex="1">
                    <mxGeometry x="154" y="120" width="100" height="50" as="geometry"/>
                </mxCell>
                <mxCell id="_y57VzKYN6rT8DrywscY-5" value="" style="edgeStyle=none;html=1;" parent="9didt3gDB0nZDHvkzKLc-1" source="_y57VzKYN6rT8DrywscY-7" target="_y57VzKYN6rT8DrywscY-9" edge="1">
                    <mxGeometry relative="1" as="geometry"/>
                </mxCell>
                <mxCell id="_y57VzKYN6rT8DrywscY-6" value="" style="edgeStyle=none;html=1;" parent="9didt3gDB0nZDHvkzKLc-1" source="_y57VzKYN6rT8DrywscY-7" target="_y57VzKYN6rT8DrywscY-11" edge="1">
                    <mxGeometry relative="1" as="geometry"/>
                </mxCell>
                <mxCell id="_y57VzKYN6rT8DrywscY-7" value="Is NAN?" style="rhombus;whiteSpace=wrap;html=1;" parent="9didt3gDB0nZDHvkzKLc-1" vertex="1">
                    <mxGeometry x="320" y="100" width="140" height="90" as="geometry"/>
                </mxCell>
                <mxCell id="_y57VzKYN6rT8DrywscY-8" style="edgeStyle=none;html=1;exitX=0;exitY=0.5;exitDx=0;exitDy=0;entryX=0.5;entryY=0;entryDx=0;entryDy=0;" parent="9didt3gDB0nZDHvkzKLc-1" source="_y57VzKYN6rT8DrywscY-9" target="_y57VzKYN6rT8DrywscY-2" edge="1">
                    <mxGeometry relative="1" as="geometry">
                        <Array as="points">
                            <mxPoint x="50" y="45"/>
                        </Array>
                    </mxGeometry>
                </mxCell>
                <mxCell id="_y57VzKYN6rT8DrywscY-9" value="&lt;span style=&quot;color: rgb(0, 0, 0);&quot;&gt;Print debug info&lt;/span&gt;" style="rounded=1;whiteSpace=wrap;html=1;" parent="9didt3gDB0nZDHvkzKLc-1" vertex="1">
                    <mxGeometry x="340" y="20" width="100" height="50" as="geometry"/>
                </mxCell>
                <mxCell id="_y57VzKYN6rT8DrywscY-10" value="" style="edgeStyle=none;html=1;" parent="9didt3gDB0nZDHvkzKLc-1" source="_y57VzKYN6rT8DrywscY-11" target="_y57VzKYN6rT8DrywscY-13" edge="1">
                    <mxGeometry relative="1" as="geometry"/>
                </mxCell>
                <mxCell id="_y57VzKYN6rT8DrywscY-11" value="&lt;span style=&quot;color: rgb(0, 0, 0);&quot;&gt;Apply calibration&lt;/span&gt;" style="rounded=1;whiteSpace=wrap;html=1;" parent="9didt3gDB0nZDHvkzKLc-1" vertex="1">
                    <mxGeometry x="520" y="120" width="100" height="50" as="geometry"/>
                </mxCell>
                <mxCell id="_y57VzKYN6rT8DrywscY-12" value="" style="edgeStyle=none;html=1;" parent="9didt3gDB0nZDHvkzKLc-1" source="_y57VzKYN6rT8DrywscY-13" target="_y57VzKYN6rT8DrywscY-15" edge="1">
                    <mxGeometry relative="1" as="geometry"/>
                </mxCell>
                <mxCell id="_y57VzKYN6rT8DrywscY-13" value="&lt;span style=&quot;color: rgb(0, 0, 0);&quot;&gt;Send via HTTP&lt;/span&gt;" style="rounded=1;whiteSpace=wrap;html=1;" parent="9didt3gDB0nZDHvkzKLc-1" vertex="1">
                    <mxGeometry x="690" y="120" width="100" height="50" as="geometry"/>
                </mxCell>
                <mxCell id="_y57VzKYN6rT8DrywscY-14" style="edgeStyle=none;html=1;entryX=0.5;entryY=0;entryDx=0;entryDy=0;" parent="9didt3gDB0nZDHvkzKLc-1" source="_y57VzKYN6rT8DrywscY-15" target="_y57VzKYN6rT8DrywscY-2" edge="1">
                    <mxGeometry relative="1" as="geometry">
                        <mxPoint x="780" y="70" as="targetPoint"/>
                        <Array as="points">
                            <mxPoint x="960" y="145"/>
                            <mxPoint x="960"/>
                            <mxPoint x="50"/>
                        </Array>
                    </mxGeometry>
                </mxCell>
                <mxCell id="_y57VzKYN6rT8DrywscY-15" value="&lt;span style=&quot;color: rgb(0, 0, 0);&quot;&gt;Delay 2000ms&lt;/span&gt;" style="rounded=1;whiteSpace=wrap;html=1;" parent="9didt3gDB0nZDHvkzKLc-1" vertex="1">
                    <mxGeometry x="840" y="120" width="100" height="50" as="geometry"/>
                </mxCell>
            </root>
        </mxGraphModel>
    </diagram>
</mxfile>